<?xml version="1.0" standalone="no"?>
<!DOCTYPE svg PUBLIC "-//W3C//DTD SVG 20010904//EN"
 "http://www.w3.org/TR/2001/REC-SVG-20010904/DTD/svg10.dtd">
<svg version="1.0" xmlns="http://www.w3.org/2000/svg"
 width="3508.000000pt" height="2480.000000pt" viewBox="0 0 3508.000000 2480.000000"
 preserveAspectRatio="xMidYMid meet">

<g transform="translate(0.000000,2480.000000) scale(0.100000,-0.100000)"
fill="#000000" stroke="none">
<path d="M14469 18613 c-23 -5 -20 -53 4 -53 17 0 24 -31 19 -85 -4 -42 3
-116 17 -177 6 -27 8 -54 5 -62 -3 -8 -1 -23 4 -33 6 -10 13 -62 16 -115 4
-54 11 -109 16 -123 6 -15 10 -68 10 -119 0 -51 9 -160 20 -242 12 -82 20
-183 19 -224 -1 -41 2 -95 6 -119 7 -36 5 -46 -9 -56 -15 -11 -11 -14 31 -24
26 -6 79 -16 117 -21 85 -13 104 -23 111 -58 38 -181 80 -348 91 -362 6 -8 15
-40 18 -71 4 -30 14 -68 21 -83 8 -16 15 -39 15 -51 0 -13 9 -44 20 -70 11
-26 20 -60 20 -75 0 -16 5 -32 10 -35 6 -3 10 -19 10 -35 0 -16 11 -64 24
-107 14 -43 27 -95 31 -115 3 -21 10 -38 15 -38 6 0 10 -18 10 -40 0 -22 7
-57 15 -77 8 -19 15 -46 15 -59 0 -12 4 -25 9 -28 12 -8 2 156 -10 168 -5 6
-9 28 -9 50 0 23 -7 66 -16 96 -9 30 -20 78 -24 105 -14 81 -31 157 -45 205
-7 25 -16 67 -20 93 -4 27 -13 67 -21 89 -8 22 -14 57 -14 77 0 21 -7 46 -15
57 -8 10 -15 37 -15 59 0 22 -7 73 -15 115 -46 227 -68 332 -104 490 -74 320
-102 430 -191 765 -28 105 -55 211 -60 237 -5 26 -13 56 -19 67 -6 11 -11 28
-11 39 0 11 -7 25 -15 32 -15 13 -75 19 -106 13z"/>
<path d="M15280 18140 c0 -5 9 -10 19 -10 11 0 23 5 26 10 4 6 -5 10 -19 10
-14 0 -26 -4 -26 -10z"/>
<path d="M15595 17880 c-11 -18 14 -37 56 -43 59 -8 66 -18 51 -73 -7 -26 -10
-49 -7 -52 3 -3 27 0 53 8 26 7 103 25 171 39 69 14 124 31 123 36 -1 6 -41
14 -89 18 -191 17 -190 17 -229 48 -28 22 -47 29 -80 29 -23 0 -46 -5 -49 -10z"/>
<path d="M15395 17695 c-55 -14 -105 -61 -106 -98 -4 -128 -2 -122 -31 -125
-22 -3 -28 2 -37 31 -7 19 -9 52 -5 74 9 61 -7 83 -62 83 -86 0 -84 3 -79
-193 2 -94 7 -252 11 -350 6 -170 8 -179 28 -186 28 -10 109 -1 118 13 4 6 8
45 8 87 0 80 9 99 47 99 28 0 43 -27 43 -77 0 -49 29 -104 64 -121 15 -7 58
-15 96 -17 38 -2 74 -6 79 -10 6 -3 11 -21 11 -39 0 -30 15 -56 32 -56 4 0 8
6 8 13 0 8 14 41 30 74 25 51 38 65 75 82 25 12 45 24 45 27 0 7 -94 3 -169
-7 -91 -14 -97 -10 -105 64 -7 69 -30 235 -51 372 -31 197 -34 184 43 204 31
9 42 17 42 31 0 39 -49 48 -135 25z m-227 -158 c3 -12 -4 -17 -22 -17 -27 0
-37 24 -13 33 19 8 32 2 35 -16z m25 -162 c1 -6 -11 -10 -28 -11 -35 -1 -47 4
-40 17 8 12 65 7 68 -6z"/>
<path d="M19990 17251 c-12 -8 -12 -15 -4 -28 16 -25 48 -39 134 -57 326 -69
380 -83 380 -103 0 -5 43 -9 96 -11 53 -1 103 -6 113 -11 9 -5 33 -11 53 -15
32 -6 41 -2 72 24 41 36 53 65 36 85 -17 20 -26 12 -49 -40 -24 -55 -46 -58
-82 -12 -20 24 -25 40 -22 64 5 31 4 31 -51 44 -51 11 -58 10 -76 -6 -23 -21
-99 -23 -156 -5 -28 10 -289 59 -399 76 -16 3 -37 0 -45 -5z"/>
<path d="M15751 16074 c0 -11 3 -14 6 -6 3 7 2 16 -1 19 -3 4 -6 -2 -5 -13z"/>
<path d="M15190 15820 c0 -11 4 -20 9 -20 5 0 7 9 4 20 -3 11 -7 20 -9 20 -2
0 -4 -9 -4 -20z"/>
<path d="M15880 15770 c0 -5 5 -10 11 -10 5 0 7 5 4 10 -3 6 -8 10 -11 10 -2
0 -4 -4 -4 -10z"/>
<path d="M15176 15751 c-3 -4 -34 -14 -68 -20 -35 -7 -88 -18 -118 -23 -61
-12 -89 -28 -48 -28 28 0 53 -23 43 -40 -3 -5 -3 -16 2 -22 9 -15 11 -24 22
-95 4 -28 12 -58 18 -65 6 -7 13 -29 17 -48 10 -58 13 -72 30 -135 9 -32 16
-70 16 -82 0 -13 9 -49 21 -81 11 -31 22 -66 23 -77 7 -42 19 -75 27 -75 5 0
9 -20 9 -44 0 -53 15 -117 71 -313 7 -24 18 -43 26 -43 7 0 13 -7 13 -15 0 -8
-4 -15 -10 -15 -14 0 -13 -57 1 -66 11 -6 9 -32 -6 -68 -6 -14 -5 -17 3 -12 7
4 12 2 12 -3 0 -6 4 -10 9 -8 5 1 11 -2 13 -8 1 -5 -13 -12 -32 -14 -34 -3
-33 -4 20 -17 73 -17 164 -18 179 -1 6 8 8 24 5 38 -3 13 -9 65 -14 114 -5 50
-13 115 -19 145 -5 30 -14 93 -20 140 -6 47 -16 103 -21 125 -5 22 -10 66 -10
98 0 32 -7 71 -15 87 -8 16 -15 33 -14 37 4 23 -3 196 -8 186 -13 -35 -23 -4
-23 75 0 57 -5 94 -14 107 -7 11 -16 49 -19 84 -3 35 -10 68 -16 74 -6 6 -11
25 -11 42 0 36 -7 48 -37 64 -26 13 -50 14 -57 2z"/>
<path d="M15950 15646 c0 -8 5 -18 10 -21 6 -3 10 1 10 9 0 8 -4 18 -10 21 -5
3 -10 -1 -10 -9z"/>
<path d="M15991 15584 c0 -11 3 -14 6 -6 3 7 2 16 -1 19 -3 4 -6 -2 -5 -13z"/>
<path d="M16020 15541 c0 -5 5 -13 10 -16 6 -3 10 -2 10 4 0 5 -4 13 -10 16
-5 3 -10 2 -10 -4z"/>
<path d="M16090 15441 c0 -5 5 -13 10 -16 6 -3 10 -2 10 4 0 5 -4 13 -10 16
-5 3 -10 2 -10 -4z"/>
<path d="M16125 15390 c3 -5 8 -10 11 -10 2 0 4 5 4 10 0 6 -5 10 -11 10 -5 0
-7 -4 -4 -10z"/>
<path d="M16165 15340 c3 -5 8 -10 11 -10 2 0 4 5 4 10 0 6 -5 10 -11 10 -5 0
-7 -4 -4 -10z"/>
<path d="M16230 15265 c0 -8 4 -15 10 -15 5 0 7 7 4 15 -4 8 -8 15 -10 15 -2
0 -4 -7 -4 -15z"/>
<path d="M16260 15230 c0 -5 5 -10 11 -10 5 0 7 5 4 10 -3 6 -8 10 -11 10 -2
0 -4 -4 -4 -10z"/>
<path d="M16570 14920 c0 -5 5 -10 11 -10 5 0 7 5 4 10 -3 6 -8 10 -11 10 -2
0 -4 -4 -4 -10z"/>
<path d="M16640 14849 c0 -5 5 -7 10 -4 6 3 10 8 10 11 0 2 -4 4 -10 4 -5 0
-10 -5 -10 -11z"/>
<path d="M16680 14820 c0 -5 5 -10 11 -10 5 0 7 5 4 10 -3 6 -8 10 -11 10 -2
0 -4 -4 -4 -10z"/>
<path d="M16730 14780 c20 -13 33 -13 25 0 -3 6 -14 10 -23 10 -15 0 -15 -2
-2 -10z"/>
<path d="M16765 14750 c3 -5 10 -10 16 -10 5 0 9 5 9 10 0 6 -7 10 -16 10 -8
0 -12 -4 -9 -10z"/>
<path d="M16807 14714 c6 -15 23 -19 23 -5 0 5 -7 11 -14 14 -10 4 -13 1 -9
-9z"/>
<path d="M12661 14644 c0 -11 3 -14 6 -6 3 7 2 16 -1 19 -3 4 -6 -2 -5 -13z"/>
<path d="M16880 14651 c0 -5 5 -13 10 -16 6 -3 10 -2 10 4 0 5 -4 13 -10 16
-5 3 -10 2 -10 -4z"/>
<path d="M18608 14503 c7 -3 16 -2 19 1 4 3 -2 6 -13 5 -11 0 -14 -3 -6 -6z"/>
<path d="M18503 14473 c9 -2 25 -2 35 0 9 3 1 5 -18 5 -19 0 -27 -2 -17 -5z"/>
<path d="M18395 14440 c-4 -6 6 -10 24 -10 16 0 33 5 36 10 4 6 -6 10 -24 10
-16 0 -33 -4 -36 -10z"/>
<path d="M18333 14419 c-18 -3 -39 -11 -45 -16 -7 -6 -30 -13 -50 -17 -21 -4
-38 -11 -38 -16 0 -16 53 -11 78 6 12 8 37 17 54 19 34 5 42 9 37 22 -2 5 -19
6 -36 2z"/>
<path d="M12602 14370 c0 -14 2 -19 5 -12 2 6 2 18 0 25 -3 6 -5 1 -5 -13z"/>
<path d="M16367 13106 c-4 -10 -5 -21 -2 -24 9 -9 17 6 13 25 -3 17 -4 17 -11
-1z"/>
<path d="M16339 13025 c-13 -21 -19 -84 -10 -89 6 -4 13 9 16 28 7 37 3 77 -6
61z"/>
<path d="M16302 12897 c-6 -16 -12 -44 -12 -64 0 -20 -7 -59 -15 -87 -28 -98
-56 -359 -63 -586 -4 -133 -11 -224 -17 -223 -9 2 -35 83 -59 183 -27 114
-118 446 -132 477 -7 18 -16 54 -20 82 -4 28 -12 52 -20 55 -10 4 -14 23 -14
62 0 44 -3 55 -14 51 -9 -4 -16 3 -20 19 -11 41 -46 47 -129 20 -39 -13 -102
-27 -139 -30 -38 -4 -68 -12 -68 -17 0 -5 9 -9 19 -9 24 0 36 -16 19 -23 -8
-4 -7 -6 4 -6 16 -1 22 -29 31 -143 1 -21 8 -43 15 -50 7 -7 12 -42 12 -89 0
-43 4 -80 8 -83 5 -3 14 -45 21 -93 7 -48 18 -125 26 -170 7 -45 11 -91 8
-102 -3 -12 -1 -21 6 -21 7 0 11 -22 12 -57 0 -38 3 -51 8 -38 7 17 8 17 13
-8 4 -19 1 -27 -8 -27 -8 0 -14 -10 -14 -22 0 -17 3 -19 9 -9 16 24 28 3 34
-57 2 -33 12 -75 20 -93 9 -19 16 -45 16 -59 -2 -80 4 -130 17 -141 22 -18 17
-39 -11 -39 -14 0 -25 -4 -25 -10 0 -5 12 -10 28 -10 21 0 24 -2 12 -10 -10
-7 22 -10 100 -11 63 -1 121 -1 127 0 7 1 31 -3 53 -9 36 -10 40 -14 40 -43 0
-18 4 -37 9 -42 5 -6 13 -37 19 -70 16 -90 59 -293 76 -355 7 -30 17 -80 21
-110 4 -30 12 -61 17 -67 6 -7 8 -22 5 -34 -3 -12 -2 -29 3 -38 4 -9 15 -43
23 -76 9 -33 23 -87 32 -120 9 -33 18 -73 19 -90 2 -16 10 -55 19 -85 9 -30
21 -89 28 -130 7 -41 19 -83 28 -93 14 -17 14 -20 -9 -37 -14 -11 -47 -24 -75
-30 -27 -7 -86 -20 -130 -30 -44 -11 -108 -22 -143 -26 -34 -4 -65 -11 -68
-15 -3 -5 0 -10 5 -10 6 -1 16 -3 21 -4 6 -1 14 -3 18 -4 5 0 9 -20 10 -43 1
-24 6 -135 12 -247 5 -112 11 -206 14 -209 3 -2 0 -14 -6 -26 -7 -11 -15 -87
-19 -168 -4 -95 -11 -153 -19 -163 -7 -8 -10 -24 -7 -35 3 -11 0 -26 -7 -33
-20 -20 -15 -114 5 -101 5 3 12 -2 16 -11 3 -10 1 -20 -5 -24 -16 -9 -37 -95
-29 -115 4 -10 16 -20 27 -23 11 -3 20 -9 20 -14 0 -5 20 -9 44 -9 64 0 72
-41 12 -63 -8 -3 -7 -9 2 -18 10 -11 60 -15 214 -17 221 -3 244 -1 253 27 3
12 32 29 80 47 42 16 87 39 102 50 25 20 27 27 25 87 -1 37 3 69 8 72 6 3 10
-1 10 -9 0 -8 5 -18 10 -21 18 -11 10 42 -10 65 -14 16 -20 37 -20 73 0 28 -3
47 -7 44 -4 -4 -5 -33 -4 -65 1 -31 -1 -53 -6 -49 -4 5 -11 75 -14 155 -3 91
-9 138 -13 125 -14 -40 -28 -25 -20 22 7 52 -4 145 -15 126 -10 -15 -21 44
-21 109 0 25 -6 54 -14 65 -7 11 -16 46 -19 77 -3 32 -9 63 -14 70 -4 7 -13
42 -20 78 -22 118 -40 204 -66 310 -15 58 -45 197 -67 309 -23 112 -45 212
-51 222 -5 10 -9 36 -9 59 0 34 3 41 17 38 10 -2 19 -12 22 -23 2 -11 12 -32
22 -47 11 -14 19 -31 19 -37 0 -12 62 -132 101 -194 10 -18 25 -43 32 -57 20
-42 115 -191 168 -265 28 -38 58 -81 67 -95 9 -14 43 -61 77 -105 33 -43 67
-89 75 -102 17 -25 180 -250 304 -418 45 -60 92 -123 106 -140 47 -55 166
-165 284 -261 83 -67 156 -139 156 -154 0 -7 -11 -21 -24 -31 -14 -11 -66 -70
-118 -132 -51 -61 -101 -118 -110 -125 -10 -7 -18 -19 -18 -27 0 -11 15 -13
73 -9 187 12 216 16 228 30 6 8 29 14 53 14 22 0 48 5 56 10 13 9 13 10 0 10
-8 0 -1 8 15 19 19 12 34 15 42 9 41 -33 -3 74 -46 110 -24 20 -1 35 34 22 30
-11 60 -6 51 8 -3 5 -6 28 -7 53 -3 78 -40 180 -85 230 -8 8 -14 19 -14 23 0
8 -18 30 -42 54 -10 9 -18 22 -18 28 0 7 -10 21 -22 31 -22 18 -41 43 -55 72
-3 7 -21 28 -39 46 -18 18 -49 55 -69 81 -21 27 -41 51 -44 54 -4 3 -22 27
-40 53 -18 27 -39 51 -46 53 -7 3 -19 19 -25 35 -7 16 -19 29 -26 29 -8 0 -14
4 -14 8 0 9 -22 38 -58 77 -10 11 -24 32 -31 46 -7 14 -34 49 -60 76 -27 28
-51 58 -54 67 -4 9 -13 16 -22 16 -8 0 -15 4 -15 8 0 7 -42 52 -102 109 -20
19 -34 37 -47 61 -6 12 -17 22 -23 22 -15 0 -87 81 -88 98 0 6 -5 12 -11 12
-13 0 -69 58 -69 71 0 5 -4 9 -10 9 -5 0 -10 7 -10 15 0 8 -9 19 -20 25 -11 6
-20 16 -20 23 0 7 -15 29 -32 48 -47 51 -108 138 -108 153 0 7 -11 22 -25 34
-14 12 -25 28 -25 36 0 8 -8 21 -19 28 -10 7 -21 27 -25 44 -4 18 -16 40 -27
50 -10 9 -19 23 -19 30 0 7 -6 19 -13 26 -8 7 -35 57 -62 111 -26 53 -52 97
-56 97 -5 0 -9 6 -9 14 0 8 -13 43 -29 78 -16 35 -32 82 -36 106 -4 23 -10 42
-15 42 -13 0 -63 171 -95 325 -9 44 -21 93 -26 109 -5 16 -9 46 -9 66 0 53
-29 222 -42 244 -7 13 -12 133 -16 332 -4 262 -2 330 12 426 10 62 16 138 14
168 -3 53 -4 54 -16 27z"/>
<path d="M11936 11531 c-4 -5 -2 -12 3 -15 5 -4 12 -2 15 3 4 5 2 12 -3 15 -5
4 -12 2 -15 -3z"/>
<path d="M25000 11212 c-22 -7 -63 -51 -101 -107 -57 -85 -89 -159 -144 -335
-40 -129 -77 -243 -100 -310 -59 -172 -202 -419 -253 -437 -27 -10 -62 -45
-62 -64 0 -21 26 -43 41 -34 6 4 34 9 62 11 59 4 78 16 143 84 123 129 225
362 269 610 36 206 89 424 113 467 7 12 12 27 12 33 0 7 9 25 21 41 23 32 22
49 -1 41z"/>
<path d="M24579 11095 c-10 -17 -55 -172 -93 -320 -50 -194 -65 -252 -81 -310
-29 -107 -52 -221 -47 -232 8 -23 19 -13 25 22 3 19 13 42 21 51 9 8 19 27 22
42 3 15 14 43 25 63 10 20 19 48 19 62 0 14 5 27 11 29 6 2 12 24 15 48 2 25
8 54 14 65 13 26 40 153 50 230 4 33 13 77 19 98 12 37 12 171 0 152z"/>
<path d="M20280 11035 c0 -40 44 -75 95 -75 45 0 28 29 -35 59 -42 21 -60 25
-60 16z"/>
<path d="M20545 10901 c-12 -21 15 -97 44 -123 25 -23 39 -27 80 -25 36 1 54
-3 70 -17 29 -26 96 -25 123 2 28 28 15 43 -31 36 -46 -7 -81 9 -81 37 0 15
-14 26 -52 43 -29 13 -68 27 -85 30 -18 4 -35 12 -38 17 -8 12 -22 12 -30 0z"/>
<path d="M21052 10698 c-19 -19 -14 -28 14 -28 18 0 25 5 22 17 -4 21 -21 26
-36 11z"/>
<path d="M20795 10610 c3 -5 15 -10 25 -10 10 0 22 5 25 10 4 6 -7 10 -25 10
-18 0 -29 -4 -25 -10z"/>
<path d="M21304 10575 c-9 -24 5 -36 27 -25 25 14 24 26 -2 33 -12 3 -22 0
-25 -8z"/>
<path d="M20670 10495 c0 -6 62 -45 73 -45 4 0 7 11 7 25 0 23 -4 25 -40 25
-22 0 -40 -2 -40 -5z"/>
<path d="M23460 10480 c0 -5 7 -10 15 -10 8 0 15 5 15 10 0 6 -7 10 -15 10 -8
0 -15 -4 -15 -10z"/>
<path d="M23576 10464 c-9 -25 -7 -32 16 -53 22 -21 439 -231 457 -231 16 0
14 4 -19 53 -25 37 -48 53 -142 101 -62 31 -133 67 -158 81 -45 24 -135 65
-143 65 -3 0 -8 -7 -11 -16z"/>
<path d="M20845 10380 c-3 -5 -1 -10 4 -10 6 0 11 5 11 10 0 6 -2 10 -4 10 -3
0 -8 -4 -11 -10z"/>
<path d="M19930 10260 c0 -5 -6 -7 -13 -4 -7 2 -31 -13 -53 -35 -32 -30 -41
-46 -42 -74 -1 -20 3 -39 9 -42 5 -4 21 -24 34 -46 30 -47 61 -68 117 -80 48
-10 82 -25 117 -51 31 -24 48 -12 22 16 -25 27 -28 78 -5 101 9 8 18 32 21 53
5 34 1 41 -34 72 -88 78 -122 100 -150 100 -13 0 -23 -4 -23 -10z"/>
<path d="M11566 10009 c-10 -49 -7 -139 4 -139 11 0 13 24 10 104 -1 41 1 48
14 43 10 -4 16 -1 16 8 0 8 -8 15 -19 15 -13 0 -20 -10 -25 -31z"/>
<path d="M11535 9880 c-4 -6 -8 -36 -9 -65 -2 -30 -8 -60 -14 -67 -6 -8 -14
-38 -18 -68 -4 -30 -12 -61 -18 -69 -6 -8 -16 -41 -22 -75 -13 -68 -110 -458
-152 -608 -19 -68 -35 -107 -54 -127 -32 -34 -34 -44 -14 -60 22 -19 53 -21
73 -5 17 13 17 14 -4 20 -26 7 -31 34 -8 34 8 0 24 -9 36 -21 11 -11 23 -18
26 -16 3 3 26 -1 51 -8 44 -14 68 -12 47 3 -15 11 -37 53 -31 59 5 6 78 -11
126 -28 24 -8 199 -23 410 -34 52 -3 118 -10 145 -15 62 -13 212 -7 227 8 14
14 1 62 -17 62 -17 0 -19 9 -5 30 8 13 10 13 10 0 0 -10 3 -11 11 -3 8 8 7 17
-3 32 -13 22 -30 23 -72 6 -16 -7 -18 -5 -13 9 6 15 0 17 -61 16 -37 0 -80 0
-97 1 -16 0 -42 -2 -57 -6 -22 -6 -28 -4 -28 9 0 9 -8 16 -19 16 -19 0 -21 8
-35 133 -3 27 -19 46 -39 47 -4 0 -18 -21 -30 -46 -38 -79 -41 -84 -59 -84 -9
0 -19 -8 -21 -17 -3 -10 -5 -3 -6 15 -1 21 -6 32 -16 32 -8 0 -15 6 -16 13 0
6 -5 3 -10 -8 -7 -14 -8 -3 -5 37 3 32 0 60 -5 63 -5 4 -9 19 -9 35 0 36 -10
42 -35 24 -13 -10 -19 -25 -18 -49 1 -19 -5 -39 -12 -45 -8 -6 -12 -17 -9 -24
3 -7 -2 -18 -10 -25 -12 -10 -16 -8 -21 8 -7 23 -25 29 -25 9 0 -9 -3 -9 -11
-1 -14 14 -4 45 14 41 7 -2 14 0 15 5 1 4 -1 7 -4 6 -11 -1 -33 50 -36 83 -4
38 -23 48 -32 16 -3 -13 -16 -35 -28 -49 -48 -55 -53 -1 -19 191 6 30 12 97
14 147 3 51 9 99 15 106 6 7 9 23 6 35 -4 13 0 28 10 37 13 14 15 35 12 126
-4 111 -8 130 -21 109z"/>
<path d="M22535 9859 c-500 -4 -946 -12 -990 -17 -44 -6 -83 -8 -88 -5 -15 9
-850 2 -866 -7 -13 -7 -11 -9 9 -9 14 0 387 -3 830 -8 697 -7 1224 -7 2380 1
255 2 327 11 317 40 -5 14 -361 15 -1592 5z"/>
<path d="M20464 9828 c-3 -4 18 -8 45 -8 28 0 51 4 51 9 0 11 -89 11 -96 -1z"/>
<path d="M15920 9041 c0 -25 6 -27 13 -6 4 8 2 17 -3 20 -6 4 -10 -3 -10 -14z"/>
<path d="M15937 8973 c-2 -5 -3 -17 -2 -28 1 -11 2 -48 3 -82 2 -56 4 -63 22
-63 13 0 20 7 20 20 0 11 5 20 11 20 14 0 4 59 -18 106 -16 33 -28 42 -36 27z"/>
<path d="M12000 8938 c0 -19 2 -20 10 -8 13 19 13 30 0 30 -5 0 -10 -10 -10
-22z"/>
<path d="M12140 8953 c0 -5 5 -15 10 -23 8 -12 10 -11 10 8 0 12 -4 22 -10 22
-5 0 -10 -3 -10 -7z"/>
<path d="M11301 8716 c10 -9 79 -16 79 -8 0 5 -19 9 -42 10 -23 1 -39 0 -37
-2z"/>
<path d="M11448 8713 c7 -3 16 -2 19 1 4 3 -2 6 -13 5 -11 0 -14 -3 -6 -6z"/>
<path d="M16703 8583 c-4 -10 -11 -21 -17 -25 -7 -5 -4 -8 7 -8 27 0 49 -24
35 -38 -8 -8 -7 -13 5 -18 23 -9 52 0 49 15 -2 8 5 22 14 32 16 18 16 20 -1
39 -23 26 -83 27 -92 3z"/>
<path d="M23043 8583 c9 -2 23 -2 30 0 6 3 -1 5 -18 5 -16 0 -22 -2 -12 -5z"/>
<path d="M21686 8551 c-3 -5 -41 -12 -83 -15 -43 -4 -123 -13 -178 -21 -186
-26 -270 -37 -385 -51 -177 -21 -321 -42 -360 -54 -19 -5 -53 -10 -75 -10 -22
0 -46 -4 -53 -9 -25 -16 67 -22 172 -11 55 5 250 15 431 20 182 6 344 13 360
15 40 6 205 15 344 20 64 2 118 8 124 14 6 6 27 11 47 12 19 0 53 4 75 8 l40
9 -53 1 c-35 1 -51 5 -46 12 3 6 17 8 29 5 26 -7 45 12 25 24 -12 7 -40 2 -82
-15 -13 -5 -18 -2 -18 10 0 11 -6 15 -18 11 -24 -8 -136 11 -140 24 -4 12
-149 14 -156 1z"/>
<path d="M18260 8537 c0 -7 5 -18 12 -25 7 -7 12 -35 13 -63 l0 -52 115 -2
c63 -1 144 -5 180 -9 54 -5 61 -4 40 5 -14 7 -92 45 -175 86 -150 73 -185 85
-185 60z"/>
<path d="M24495 8380 c29 -12 168 -12 160 0 -3 6 -45 10 -93 9 -58 0 -80 -3
-67 -9z"/>
<path d="M17896 8323 c-1 -1 -82 -3 -181 -4 -191 -2 -215 -7 -215 -48 0 -42
-30 -57 -123 -60 -46 -1 -97 3 -113 9 -34 14 -59 17 -217 26 -65 4 -114 11
-110 15 5 5 78 10 163 13 176 4 170 4 150 15 -8 4 -44 5 -80 1 -96 -9 -636 -3
-869 11 -261 15 -1868 6 -1885 -11 -6 -6 -12 -25 -12 -43 -1 -18 -3 -38 -5
-46 -3 -9 7 -16 26 -20 17 -3 766 -4 1665 0 1467 5 1648 7 1760 22 69 10 145
20 169 23 28 4 40 9 31 14 -9 5 -11 19 -6 44 6 33 5 36 -16 38 -35 2 -129 3
-132 1z"/>
<path d="M10373 8293 c-35 -4 -43 -17 -19 -26 8 -3 18 -22 21 -41 7 -34 8 -35
68 -40 303 -28 392 -30 1062 -28 1112 2 2568 13 2588 19 17 4 17 6 3 22 -9 10
-17 32 -19 50 -2 17 -9 37 -14 42 -15 15 -1921 6 -2018 -9 -38 -6 -151 -16
-250 -23 -182 -11 -246 -17 -410 -38 -283 -35 -349 -39 -435 -26 -54 9 -70 20
-70 50 0 12 -9 26 -22 33 -23 11 -424 24 -485 15z"/>
</g>
</svg>
