<svg width="55" height="102" viewBox="0 0 55 102" fill="none" xmlns="http://www.w3.org/2000/svg">
<rect width="55" height="102" fill="#F5F5F5"/>
<g id="copa_cavaverdot">
<g id="Group">
<g id="XMLID_101_">
<g id="XMLID_106_">
<path id="Vector" d="M49.1387 17.4766C48.2638 18.1222 47.8216 19.1368 47.8216 20.511C47.8216 20.9538 47.8498 21.4057 47.9251 21.8945C49.0164 20.3266 50.0418 18.6018 50.9544 16.6834C50.2582 16.831 49.6467 17.0984 49.1387 17.4766ZM49.1387 17.4766C48.2638 18.1222 47.8216 19.1368 47.8216 20.511C47.8216 20.9538 47.8498 21.4057 47.9251 21.8945C49.0164 20.3266 50.0418 18.6018 50.9544 16.6834C50.2582 16.831 49.6467 17.0984 49.1387 17.4766ZM49.1387 17.4766C48.2638 18.1222 47.8216 19.1368 47.8216 20.511C47.8216 20.9538 47.8498 21.4057 47.9251 21.8945C49.0164 20.3266 50.0418 18.6018 50.9544 16.6834C50.2582 16.831 49.6467 17.0984 49.1387 17.4766ZM49.1387 17.4766C48.2638 18.1222 47.8216 19.1368 47.8216 20.511C47.8216 20.9538 47.8498 21.4057 47.9251 21.8945C49.0164 20.3266 50.0418 18.6018 50.9544 16.6834C50.2582 16.831 49.6467 17.0984 49.1387 17.4766ZM49.1387 17.4766C48.2638 18.1222 47.8216 19.1368 47.8216 20.511C47.8216 20.9538 47.8498 21.4057 47.9251 21.8945C49.0164 20.3266 50.0418 18.6018 50.9544 16.6834C50.2582 16.831 49.6467 17.0984 49.1387 17.4766Z" fill="white"/>
</g>
<g id="XMLID_105_">
<path id="Vector_2" d="M3.20988 12.0256C3.17225 12.0256 3.12522 12.0349 3.07818 12.0625C2.72068 12.247 2.10918 13.1509 2.34437 15.2815C2.41022 15.9271 2.52313 16.5358 2.66425 17.1077C2.76773 16.1484 2.9841 15.1431 3.36041 14.0732C3.78376 12.865 3.53917 12.2378 3.35101 12.0718C3.30397 12.0533 3.26633 12.0256 3.20988 12.0256Z" fill="white"/>
</g>
</g>
</g>
<g id="Group_2">
<g id="XMLID_100_">
<path id="Vector_3" d="M42.572 100.624C41.3114 100.043 38.4138 99.1764 34.8294 98.2172C31.612 97.3594 29.3729 94.491 29.3729 91.2259V66.8857C29.3729 64.1648 31.0475 61.7022 33.6346 60.7245C38.7148 58.7969 43.033 54.6649 45.8459 49.2323C46.0811 48.7804 45.4885 48.3561 45.131 48.7158C40.1825 53.5304 33.9263 56.4081 27.115 56.4081C20.3038 56.4081 14.0382 53.5304 9.09915 48.7158C8.73225 48.3653 8.14896 48.7896 8.38415 49.2323C11.2065 54.6649 15.5153 58.7969 20.5955 60.7245C23.1826 61.7022 24.8572 64.1741 24.8572 66.8857V91.2259C24.8572 94.5002 22.6181 97.3594 19.4007 98.2172C15.8163 99.1764 12.9187 100.043 11.6581 100.624C10.9995 100.929 11.2065 101.897 11.9309 101.897H42.2898C43.033 101.897 43.2306 100.929 42.572 100.624Z" fill="#1C1C1C"/>
</g>
<g id="XMLID_94_">
<g id="XMLID_99_">
<path id="Vector_4" d="M52.2527 8.88049C52.1868 8.66835 51.8763 8.67757 51.8199 8.88971C45.592 31.9664 25.8826 34.4382 21.3857 34.6964C21.2258 34.7057 21.1882 34.4935 21.3293 34.4382C32.7691 30.3523 32.4681 18.4358 30.7841 14.5344C30.7088 14.3683 30.4548 14.4237 30.4642 14.6081C30.9064 31.0164 7.88556 34.3921 0.481636 22.0052C0.359335 21.8023 0.0582886 21.8945 0.0582886 22.1159C0.444008 40.0275 12.4107 54.3974 27.1245 54.3974C42.0734 54.3974 54.2001 39.5479 54.2001 21.2212C54.1907 16.8678 53.5039 12.6989 52.2527 8.88049Z" fill="#C00040"/>
</g>
<g id="XMLID_98_">
<path id="Vector_5" d="M8.01726 26.3033C8.13016 26.3586 8.23365 26.2018 8.13957 26.1188C6.67195 24.8275 2.9653 20.797 5.11968 14.6819C7.10472 9.04652 -0.33684 8.05963 0.453413 15.4751C1.22485 22.6324 6.19215 25.4824 8.01726 26.3033Z" fill="#C00040"/>
</g>
<g id="XMLID_97_">
<path id="Vector_6" d="M32.6845 25.9528C34.6789 23.7945 40.3706 16.8033 37.8305 10.4485C35.5915 4.83148 29.7775 7.0174 31.9883 12.0902C34.9612 18.897 33.2677 24.0712 32.4963 25.8329C32.4493 25.9528 32.5998 26.0542 32.6845 25.9528Z" fill="#C00040"/>
</g>
<g id="XMLID_96_">
<path id="Vector_7" d="M9.74829 26.995C9.76711 27.1149 9.94585 27.1241 9.97407 27.0042C10.2187 25.8606 10.5197 23.4625 9.44724 21.378C8.27126 19.0907 5.98518 21.1567 7.60332 22.6232C9.16501 24.0159 9.61658 25.9712 9.74829 26.995Z" fill="#C00040"/>
</g>
<g id="XMLID_95_">
<path id="Vector_8" d="M35.6103 4.03828C38.4044 5.91983 39.3264 8.77904 39.6462 10.0242C39.6744 10.1441 39.8532 10.1349 39.8626 10.0057C40.0508 8.4839 40.3236 4.31498 38.2351 1.95382C35.4504 -1.17287 32.0353 1.631 35.6103 4.03828Z" fill="#C00040"/>
</g>
</g>
</g>
</g>
</svg>
