<?xml version="1.0" encoding="utf-8"?>
<!-- Generator: Adobe Illustrator 24.0.2, SVG Export Plug-In . SVG Version: 6.00 Build 0)  -->
<svg version="1.1" id="Capa_1" xmlns="http://www.w3.org/2000/svg" xmlns:xlink="http://www.w3.org/1999/xlink" x="0px" y="0px"
	 viewBox="0 0 425.18 234.19" style="enable-background:new 0 0 425.18 234.19;" xml:space="preserve">
<style type="text/css">
	.st0{clip-path:url(#SVGID_4_);}
	.st1{fill:#1C1C1C;}
	.st2{fill:#C00040;}
	.st3{fill:#3D3D3D;}
	.st4{clip-path:url(#SVGID_8_);}
	.st5{clip-path:url(#SVGID_12_);}
	.st6{clip-path:url(#SVGID_16_);}
	.st7{clip-path:url(#SVGID_20_);}
	.st8{clip-path:url(#SVGID_24_);}
	.st9{clip-path:url(#SVGID_28_);}
	.st10{clip-path:url(#SVGID_32_);}
	.st11{clip-path:url(#SVGID_36_);}
	.st12{fill:#FFFFFF;}
</style>
<g>
	<g>
		<g>
			<path class="st1" d="M81.51,151.37c-9.25,0-16.98-2.15-23.19-6.45c-6.21-4.29-10.88-10.3-14.01-18
				c-3.13-7.71-4.69-16.74-4.69-27.11c0-10.18,1.59-19.13,4.76-26.83c3.17-7.71,7.89-13.71,14.15-18c6.26-4.3,14.01-6.45,23.26-6.45
				c9.34,0,16.37,1.59,21.09,4.76c4.72,3.18,7.08,7.01,7.08,11.49c0,3.27-1.31,6-3.92,8.2c-2.62,2.2-6.49,3.29-11.63,3.29
				c0-3.08-0.42-6.1-1.26-9.04c-0.84-2.94-2.27-5.37-4.27-7.29c-2.01-1.91-4.74-2.87-8.2-2.87c-7.47,0-12.68,3.76-15.62,11.28
				c-2.94,7.52-4.41,18-4.41,31.46c0,13.83,1.82,24.17,5.46,31.03c3.64,6.87,9.85,10.3,18.63,10.3c4.11,0,7.64-0.68,10.58-2.03
				c2.94-1.35,5.42-3.06,7.43-5.11c2.01-2.05,3.76-4.16,5.25-6.3c1.31,1.31,1.96,3.22,1.96,5.74c0,2.43-0.84,5.04-2.52,7.85
				c-1.68,2.8-4.6,5.19-8.76,7.15C94.52,150.39,88.8,151.37,81.51,151.37z"/>
			<path class="st1" d="M211.43,147.44c-0.08,0.02-0.15,0.04-0.23,0.06h2.44v-0.96C212.95,146.92,212.21,147.23,211.43,147.44z
				 M206.49,141.14c-1.59-1.22-2.85-3.46-3.78-6.73l-25.92-84.49h-17.24l-26.48,82.53c-1.31,4.39-2.71,7.24-4.2,8.55
				c-1.5,1.31-3.32,1.96-5.46,1.96H122v7h31.81v-7h-4.76c-3.93,0-5.89-1.87-5.89-5.61c0-1.21,0.21-2.63,0.63-4.27
				c0.42-1.63,0.77-3.01,1.05-4.13l3.37-12.05h29.42l4.06,13.73c0.28,0.93,0.56,2.1,0.84,3.5c0.28,1.4,0.42,2.62,0.42,3.64
				c0,1.78-0.56,3.09-1.68,3.93c-1.12,0.84-2.47,1.26-4.06,1.26h-4.2v7h27.5c-0.09-0.18-0.15-0.37-0.2-0.57
				c-0.28-1.26,0.34-2.52,1.51-3.07c1.34-0.63,4.14-1.53,8.55-2.73c0.53-0.15,1.03-0.36,1.49-0.64
				C209.78,142.89,207.99,142.28,206.49,141.14z M150.87,108.63l7.56-26.34c0.94-3.08,1.83-6.26,2.67-9.53
				c0.84-3.27,1.63-6.3,2.38-9.11c0.56,3,1.26,6.15,2.1,9.46c0.84,3.32,1.73,6.61,2.66,9.88l6.87,25.64H150.87z"/>
			<path class="st1" d="M242.5,68.14c-0.28-1.03-0.58-2.17-0.91-3.44c-0.18-0.68-0.31-1.32-0.38-1.93
				c-4.84,7.05-11.07,10.98-16.5,13.16l5.04,17.28c6.58-3.64,11.79-10.53,14.36-19.06L242.5,68.14z M265.2,49.92v7.01h5.61
				c3.36,0,5.04,1.45,5.04,4.34c0,1.03-0.19,2.27-0.56,3.71c-0.38,1.45-0.75,2.93-1.12,4.42l-11.91,42.73
				c-0.84,2.99-1.64,6.01-2.38,9.04c-0.75,3.04-1.36,5.86-1.83,8.48c-0.46-2.71-1.05-5.7-1.75-8.97s-1.42-6.26-2.17-8.97
				l-8.26-30.95c-1.61,3.48-3.64,6.61-6.02,9.29c0.07,0.03,0.13,0.08,0.19,0.12c0.99,0.73,1.31,2.04,0.75,3.14
				c-2.08,4.09-4.86,7.5-8.1,10.01l13.6,46.64h13.87l24.24-82.52c1.21-4.39,2.33-7.24,3.36-8.55c1.03-1.31,2.43-1.96,4.2-1.96h4.21
				v-7.01H265.2z M248.26,49.92c0.63,2.28,1.07,4.62,1.32,7.01h1.47v-7.01H248.26z M245.31,55.1c-0.28,0.69-0.58,1.37-0.88,2.02
				c0.35-0.09,0.73-0.15,1.13-0.17C245.5,56.33,245.41,55.71,245.31,55.1z M234.65,49.92c-0.01,0.07-0.02,0.14-0.03,0.21
				c-0.11,0.89-0.77,1.61-1.63,1.8c1.25,7.3-4.54,14.42-6.5,16.58v0.01c-0.41,0.45-0.99,0.69-1.57,0.69c-0.3,0-0.61-0.07-0.9-0.21
				c-0.26,0.56-0.55,1.1-0.86,1.61l0.45,1.54c7.06-2.89,15.28-9.06,19.29-22.23H234.65z M228.62,51.09
				c-0.18-0.47-0.39-0.86-0.6-1.17h-2.26c0.01,0.37,0.11,0.86,0.35,1.43c1.2,2.8,1.75,5.36,1.91,7.62
				C229.08,56.49,229.64,53.68,228.62,51.09z M221.75,49.92h-10.91v7.01h2.94c1.59,0,3.03,0.47,4.34,1.4
				c0.62,0.45,1.19,1.11,1.69,1.98c0.6-1.63,0.89-3.44,0.84-5.39c-0.03-1.04,0.69-1.96,1.71-2.19
				C221.97,51.76,221.77,50.81,221.75,49.92z"/>
			<path class="st1" d="M293.92,149.97v-7.01h1.4c2.15,0,3.97-0.65,5.46-1.96c1.49-1.31,2.89-4.16,4.2-8.55l26.48-82.53h17.23
				l25.92,84.49c0.93,3.27,2.19,5.51,3.78,6.72c1.59,1.22,3.5,1.82,5.74,1.82h1.4v7.01h-40.63v-7.01h4.2c1.59,0,2.94-0.42,4.06-1.26
				c1.12-0.84,1.68-2.15,1.68-3.92c0-1.03-0.14-2.24-0.42-3.64c-0.28-1.4-0.56-2.57-0.84-3.5l-4.06-13.73h-29.42l-3.36,12.05
				c-0.28,1.12-0.63,2.5-1.05,4.13c-0.42,1.64-0.63,3.06-0.63,4.27c0,3.74,1.96,5.6,5.88,5.6h4.77v7.01H293.92z M322.79,108.63
				h24.24l-6.87-25.64c-0.93-3.27-1.82-6.56-2.66-9.88c-0.84-3.31-1.54-6.47-2.1-9.46c-0.75,2.8-1.54,5.84-2.38,9.11
				c-0.84,3.27-1.73,6.45-2.66,9.53L322.79,108.63z"/>
		</g>
		<g>
			<g>
				<g id="XMLID_101_">
					<g id="XMLID_106_">
						<path class="st12" d="M242.5,57.98c-0.93,0.7-1.4,1.8-1.4,3.29c0,0.48,0.03,0.97,0.11,1.5c1.16-1.7,2.25-3.57,3.22-5.65
							C243.69,57.28,243.04,57.57,242.5,57.98z M242.5,57.98c-0.93,0.7-1.4,1.8-1.4,3.29c0,0.48,0.03,0.97,0.11,1.5
							c1.16-1.7,2.25-3.57,3.22-5.65C243.69,57.28,243.04,57.57,242.5,57.98z M242.5,57.98c-0.93,0.7-1.4,1.8-1.4,3.29
							c0,0.48,0.03,0.97,0.11,1.5c1.16-1.7,2.25-3.57,3.22-5.65C243.69,57.28,243.04,57.57,242.5,57.98z M242.5,57.98
							c-0.93,0.7-1.4,1.8-1.4,3.29c0,0.48,0.03,0.97,0.11,1.5c1.16-1.7,2.25-3.57,3.22-5.65C243.69,57.28,243.04,57.57,242.5,57.98z
							 M242.5,57.98c-0.93,0.7-1.4,1.8-1.4,3.29c0,0.48,0.03,0.97,0.11,1.5c1.16-1.7,2.25-3.57,3.22-5.65
							C243.69,57.28,243.04,57.57,242.5,57.98z"/>
					</g>
					<g id="XMLID_105_">
						<path class="st12" d="M193.68,52.07c-0.04,0-0.09,0.01-0.14,0.04c-0.38,0.2-1.03,1.18-0.78,3.49c0.07,0.7,0.19,1.36,0.34,1.98
							c0.11-1.04,0.34-2.13,0.74-3.29c0.45-1.31,0.19-1.99-0.01-2.17C193.78,52.1,193.74,52.07,193.68,52.07z"/>
					</g>
				</g>
			</g>
			<g>
				<g id="XMLID_100_">
					<path class="st1" d="M235.52,148.13c-1.34-0.63-4.42-1.57-8.23-2.61c-3.42-0.93-5.8-4.04-5.8-7.58v-26.39
						c0-2.95,1.78-5.62,4.53-6.68c5.4-2.09,9.99-6.57,12.98-12.46c0.25-0.49-0.38-0.95-0.76-0.56c-5.26,5.22-11.91,8.34-19.15,8.34
						c-7.24,0-13.9-3.12-19.15-8.34c-0.39-0.38-1.01,0.08-0.76,0.56c3,5.89,7.58,10.37,12.98,12.46c2.75,1.06,4.53,3.74,4.53,6.68
						v26.39c0,3.55-2.38,6.65-5.8,7.58c-3.81,1.04-6.89,1.98-8.23,2.61c-0.7,0.33-0.48,1.38,0.29,1.38h32.27
						C236.01,149.51,236.22,148.46,235.52,148.13z"/>
				</g>
				<g id="XMLID_94_">
					<g id="XMLID_99_">
						<path class="st2" d="M245.81,48.66c-0.07-0.23-0.4-0.22-0.46,0.01c-6.62,25.02-27.57,27.7-32.35,27.98
							c-0.17,0.01-0.21-0.22-0.06-0.28c12.16-4.43,11.84-17.35,10.05-21.58c-0.08-0.18-0.35-0.12-0.34,0.08
							c0.47,17.79-24,21.45-31.87,8.02c-0.13-0.22-0.45-0.12-0.45,0.12c0.41,19.42,13.13,35,28.77,35
							c15.89,0,28.78-16.1,28.78-35.97C247.87,57.32,247.14,52.8,245.81,48.66z"/>
					</g>
					<g id="XMLID_98_">
						<path class="st2" d="M198.79,67.55c0.12,0.06,0.23-0.11,0.13-0.2c-1.56-1.4-5.5-5.77-3.21-12.4c2.11-6.11-5.8-7.18-4.96,0.86
							C191.57,63.57,196.85,66.66,198.79,67.55z"/>
					</g>
					<g id="XMLID_97_">
						<path class="st2" d="M225.01,67.17c2.12-2.34,8.17-9.92,5.47-16.81c-2.38-6.09-8.56-3.72-6.21,1.78
							c3.16,7.38,1.36,12.99,0.54,14.9C224.76,67.17,224.92,67.28,225.01,67.17z"/>
					</g>
					<g id="XMLID_96_">
						<path class="st2" d="M200.63,68.3c0.02,0.13,0.21,0.14,0.24,0.01c0.26-1.24,0.58-3.84-0.56-6.1
							c-1.25-2.48-3.68-0.24-1.96,1.35C200.01,65.07,200.49,67.19,200.63,68.3z"/>
					</g>
					<g id="XMLID_95_">
						<path class="st2" d="M228.12,43.41c2.97,2.04,3.95,5.14,4.29,6.49c0.03,0.13,0.22,0.12,0.23-0.02
							c0.2-1.65,0.49-6.17-1.73-8.73C227.95,37.76,224.32,40.8,228.12,43.41z"/>
					</g>
				</g>
			</g>
		</g>
	</g>
	<g>
		<g>
			<circle class="st1" cx="309.36" cy="182.34" r="3.17"/>
			<circle class="st1" cx="115.82" cy="182.34" r="3.17"/>
		</g>
		<g>
			<path class="st1" d="M138.93,188.36c0.43-1.28,0.75-2.19,0.94-2.73s0.6-1.66,1.22-3.35l4.36-11.69H150l-9.19,23.52h-3.87
				l-9.19-23.52h4.59l4.36,11.69c0.62,1.69,1.03,2.8,1.22,3.35s0.51,1.46,0.94,2.73H138.93z"/>
			<path class="st1" d="M164.21,190.5h11.57v3.6H159.9v-23.52h15.24v3.6h-10.93v6.08h9.39v3.6h-9.39V190.5z"/>
			<path class="st1" d="M204.48,177.65c0,1.64-0.45,3.03-1.36,4.17s-2.31,1.99-4.21,2.54v0.07l7,9.67h-5.17l-6.4-9.11h-2.95v9.11
				h-4.31v-23.52h7.15c1.18,0,2.29,0.07,3.3,0.2s1.89,0.34,2.62,0.61c1.38,0.53,2.45,1.31,3.2,2.35S204.48,176.08,204.48,177.65z
				 M193.51,181.39c0.98,0,1.82-0.04,2.5-0.13s1.26-0.22,1.73-0.4c0.87-0.33,1.47-0.78,1.8-1.34s0.5-1.22,0.5-1.96
				c0-0.63-0.13-1.19-0.4-1.68s-0.71-0.87-1.34-1.15c-0.41-0.19-0.93-0.33-1.55-0.41s-1.39-0.13-2.3-0.13h-3.08v7.21H193.51z"/>
			<path class="st1" d="M216.41,194.1v-23.52h6.22c0.55,0,1.11,0.02,1.68,0.05s1.12,0.09,1.66,0.16s1.06,0.16,1.56,0.25
				s0.97,0.22,1.39,0.36c1.25,0.4,2.36,0.94,3.32,1.62s1.77,1.48,2.42,2.41s1.14,1.96,1.48,3.1s0.5,2.38,0.5,3.72
				c0,1.27-0.14,2.45-0.42,3.56s-0.71,2.12-1.28,3.03s-1.3,1.72-2.17,2.42s-1.91,1.27-3.1,1.71c-1,0.38-2.13,0.66-3.39,0.84
				s-2.69,0.28-4.27,0.28H216.41z M222.49,190.5c2.52,0,4.49-0.35,5.91-1.04c1.25-0.62,2.2-1.52,2.85-2.71s0.97-2.7,0.97-4.54
				c0-0.96-0.11-1.83-0.32-2.6s-0.52-1.46-0.91-2.07s-0.88-1.12-1.45-1.56s-1.21-0.79-1.93-1.07c-0.67-0.26-1.41-0.45-2.23-0.56
				s-1.74-0.18-2.76-0.18h-1.9v16.31H222.49z"/>
			<path class="st1" d="M269.81,182.34c0,1.79-0.25,3.44-0.76,4.93s-1.25,2.78-2.23,3.86s-2.18,1.92-3.6,2.51s-3.04,0.9-4.86,0.9
				s-3.44-0.3-4.86-0.9s-2.63-1.44-3.6-2.51s-1.72-2.36-2.23-3.86s-0.76-3.14-0.76-4.93s0.25-3.44,0.76-4.93s1.25-2.78,2.23-3.86
				s2.18-1.92,3.6-2.51s3.04-0.9,4.86-0.9s3.44,0.3,4.86,0.9s2.63,1.44,3.6,2.51s1.72,2.36,2.23,3.86S269.81,180.55,269.81,182.34z
				 M265.37,182.34c0-1.43-0.18-2.68-0.53-3.75s-0.84-1.97-1.46-2.68s-1.36-1.25-2.21-1.6s-1.79-0.53-2.81-0.53
				s-1.96,0.18-2.81,0.53s-1.59,0.88-2.21,1.6s-1.11,1.61-1.46,2.68s-0.53,2.32-0.53,3.75s0.18,2.68,0.53,3.75s0.84,1.96,1.46,2.67
				s1.36,1.24,2.21,1.6s1.79,0.54,2.81,0.54s1.96-0.18,2.81-0.54s1.59-0.89,2.21-1.6s1.11-1.6,1.46-2.67
				S265.37,183.77,265.37,182.34z"/>
			<path class="st1" d="M289.85,194.1h-4.31v-19.92h-7.59v-3.6h19.48v3.6h-7.58V194.1z"/>
		</g>
	</g>
</g>
</svg>
