<svg width="426" height="235" viewBox="0 0 426 235" fill="none" xmlns="http://www.w3.org/2000/svg">
<path d="M81.51 151.37C72.26 151.37 64.53 149.22 58.32 144.92C52.11 140.63 47.44 134.62 44.31 126.92C41.18 119.21 39.62 110.18 39.62 99.81C39.62 89.63 41.21 80.68 44.38 72.98C47.55 65.27 52.27 59.27 58.53 54.98C64.79 50.68 72.54 48.53 81.79 48.53C91.13 48.53 98.16 50.12 102.88 53.29C107.6 56.47 109.96 60.3 109.96 64.78C109.96 68.05 108.65 70.78 106.04 72.98C103.42 75.18 99.55 76.27 94.41 76.27C94.41 73.19 93.99 70.17 93.15 67.23C92.31 64.29 90.88 61.86 88.88 59.94C86.87 58.03 84.14 57.07 80.68 57.07C73.21 57.07 68 60.83 65.06 68.35C62.12 75.87 60.65 86.35 60.65 99.81C60.65 113.64 62.47 123.98 66.11 130.84C69.75 137.71 75.96 141.14 84.74 141.14C88.85 141.14 92.38 140.46 95.32 139.11C98.26 137.76 100.74 136.05 102.75 134C104.76 131.95 106.51 129.84 108 127.7C109.31 129.01 109.96 130.92 109.96 133.44C109.96 135.87 109.12 138.48 107.44 141.29C105.76 144.09 102.84 146.48 98.68 148.44C94.52 150.39 88.8 151.37 81.51 151.37Z" fill="white"/>
<path d="M211.43 147.44C211.35 147.46 211.28 147.48 211.2 147.5H213.64V146.54C212.95 146.92 212.21 147.23 211.43 147.44ZM206.49 141.14C204.9 139.92 203.64 137.68 202.71 134.41L176.79 49.92H159.55L133.07 132.45C131.76 136.84 130.36 139.69 128.87 141C127.37 142.31 125.55 142.96 123.41 142.96H122V149.96H153.81V142.96H149.05C145.12 142.96 143.16 141.09 143.16 137.35C143.16 136.14 143.37 134.72 143.79 133.08C144.21 131.45 144.56 130.07 144.84 128.95L148.21 116.9H177.63L181.69 130.63C181.97 131.56 182.25 132.73 182.53 134.13C182.81 135.53 182.95 136.75 182.95 137.77C182.95 139.55 182.39 140.86 181.27 141.7C180.15 142.54 178.8 142.96 177.21 142.96H173.01V149.96H200.51C200.42 149.78 200.36 149.59 200.31 149.39C200.03 148.13 200.65 146.87 201.82 146.32C203.16 145.69 205.96 144.79 210.37 143.59C210.9 143.44 211.4 143.23 211.86 142.95C209.78 142.89 207.99 142.28 206.49 141.14ZM150.87 108.63L158.43 82.29C159.37 79.21 160.26 76.03 161.1 72.76C161.94 69.49 162.73 66.46 163.48 63.65C164.04 66.65 164.74 69.8 165.58 73.11C166.42 76.43 167.31 79.72 168.24 82.99L175.11 108.63H150.87V108.63Z" fill="white"/>
<path d="M242.5 68.14C242.22 67.11 241.92 65.97 241.59 64.7C241.41 64.02 241.28 63.38 241.21 62.77C236.37 69.82 230.14 73.75 224.71 75.93L229.75 93.21C236.33 89.57 241.54 82.68 244.11 74.15L242.5 68.14ZM265.2 49.92V56.93H270.81C274.17 56.93 275.85 58.38 275.85 61.27C275.85 62.3 275.66 63.54 275.29 64.98C274.91 66.43 274.54 67.91 274.17 69.4L262.26 112.13C261.42 115.12 260.62 118.14 259.88 121.17C259.13 124.21 258.52 127.03 258.05 129.65C257.59 126.94 257 123.95 256.3 120.68C255.6 117.41 254.88 114.42 254.13 111.71L245.87 80.76C244.26 84.24 242.23 87.37 239.85 90.05C239.92 90.08 239.98 90.13 240.04 90.17C241.03 90.9 241.35 92.21 240.79 93.31C238.71 97.4 235.93 100.81 232.69 103.32L246.29 149.96H260.16L284.4 67.44C285.61 63.05 286.73 60.2 287.76 58.89C288.79 57.58 290.19 56.93 291.96 56.93H296.17V49.92H265.2V49.92ZM248.26 49.92C248.89 52.2 249.33 54.54 249.58 56.93H251.05V49.92H248.26ZM245.31 55.1C245.03 55.79 244.73 56.47 244.43 57.12C244.78 57.03 245.16 56.97 245.56 56.95C245.5 56.33 245.41 55.71 245.31 55.1ZM234.65 49.92C234.64 49.99 234.63 50.06 234.62 50.13C234.51 51.02 233.85 51.74 232.99 51.93C234.24 59.23 228.45 66.35 226.49 68.51V68.52C226.08 68.97 225.5 69.21 224.92 69.21C224.62 69.21 224.31 69.14 224.02 69C223.76 69.56 223.47 70.1 223.16 70.61L223.61 72.15C230.67 69.26 238.89 63.09 242.9 49.92H234.65ZM228.62 51.09C228.44 50.62 228.23 50.23 228.02 49.92H225.76C225.77 50.29 225.87 50.78 226.11 51.35C227.31 54.15 227.86 56.71 228.02 58.97C229.08 56.49 229.64 53.68 228.62 51.09ZM221.75 49.92H210.84V56.93H213.78C215.37 56.93 216.81 57.4 218.12 58.33C218.74 58.78 219.31 59.44 219.81 60.31C220.41 58.68 220.7 56.87 220.65 54.92C220.62 53.88 221.34 52.96 222.36 52.73C221.97 51.76 221.77 50.81 221.75 49.92Z" fill="white"/>
<path d="M293.92 149.97V142.96H295.32C297.47 142.96 299.29 142.31 300.78 141C302.27 139.69 303.67 136.84 304.98 132.45L331.46 49.92H348.69L374.61 134.41C375.54 137.68 376.8 139.92 378.39 141.13C379.98 142.35 381.89 142.95 384.13 142.95H385.53V149.96H344.9V142.95H349.1C350.69 142.95 352.04 142.53 353.16 141.69C354.28 140.85 354.84 139.54 354.84 137.77C354.84 136.74 354.7 135.53 354.42 134.13C354.14 132.73 353.86 131.56 353.58 130.63L349.52 116.9H320.1L316.74 128.95C316.46 130.07 316.11 131.45 315.69 133.08C315.27 134.72 315.06 136.14 315.06 137.35C315.06 141.09 317.02 142.95 320.94 142.95H325.71V149.96H293.92V149.97ZM322.79 108.63H347.03L340.16 82.99C339.23 79.72 338.34 76.43 337.5 73.11C336.66 69.8 335.96 66.64 335.4 63.65C334.65 66.45 333.86 69.49 333.02 72.76C332.18 76.03 331.29 79.21 330.36 82.29L322.79 108.63Z" fill="white"/>
<path d="M242.5 57.98C241.57 58.68 241.1 59.78 241.1 61.27C241.1 61.75 241.13 62.24 241.21 62.77C242.37 61.07 243.46 59.2 244.43 57.12C243.69 57.28 243.04 57.57 242.5 57.98ZM242.5 57.98C241.57 58.68 241.1 59.78 241.1 61.27C241.1 61.75 241.13 62.24 241.21 62.77C242.37 61.07 243.46 59.2 244.43 57.12C243.69 57.28 243.04 57.57 242.5 57.98ZM242.5 57.98C241.57 58.68 241.1 59.78 241.1 61.27C241.1 61.75 241.13 62.24 241.21 62.77C242.37 61.07 243.46 59.2 244.43 57.12C243.69 57.28 243.04 57.57 242.5 57.98ZM242.5 57.98C241.57 58.68 241.1 59.78 241.1 61.27C241.1 61.75 241.13 62.24 241.21 62.77C242.37 61.07 243.46 59.2 244.43 57.12C243.69 57.28 243.04 57.57 242.5 57.98ZM242.5 57.98C241.57 58.68 241.1 59.78 241.1 61.27C241.1 61.75 241.13 62.24 241.21 62.77C242.37 61.07 243.46 59.2 244.43 57.12C243.69 57.28 243.04 57.57 242.5 57.98Z" fill="white"/>
<path d="M193.68 52.07C193.64 52.07 193.59 52.08 193.54 52.11C193.16 52.31 192.51 53.29 192.76 55.6C192.83 56.3 192.95 56.96 193.1 57.58C193.21 56.54 193.44 55.45 193.84 54.29C194.29 52.98 194.03 52.3 193.83 52.12C193.78 52.1 193.74 52.07 193.68 52.07Z" fill="white"/>
<path d="M235.52 148.13C234.18 147.5 231.1 146.56 227.29 145.52C223.87 144.59 221.49 141.48 221.49 137.94V111.55C221.49 108.6 223.27 105.93 226.02 104.87C231.42 102.78 236.01 98.3 239 92.41C239.25 91.92 238.62 91.46 238.24 91.85C232.98 97.07 226.33 100.19 219.09 100.19C211.85 100.19 205.19 97.07 199.94 91.85C199.55 91.47 198.93 91.93 199.18 92.41C202.18 98.3 206.76 102.78 212.16 104.87C214.91 105.93 216.69 108.61 216.69 111.55V137.94C216.69 141.49 214.31 144.59 210.89 145.52C207.08 146.56 204 147.5 202.66 148.13C201.96 148.46 202.18 149.51 202.95 149.51H235.22C236.01 149.51 236.22 148.46 235.52 148.13Z" fill="white"/>
<path d="M245.81 48.66C245.74 48.43 245.41 48.44 245.35 48.67C238.73 73.69 217.78 76.37 213 76.65C212.83 76.66 212.79 76.43 212.94 76.37C225.1 71.94 224.78 59.02 222.99 54.79C222.91 54.61 222.64 54.67 222.65 54.87C223.12 72.66 198.65 76.32 190.78 62.89C190.65 62.67 190.33 62.77 190.33 63.01C190.74 82.43 203.46 98.01 219.1 98.01C234.99 98.01 247.88 81.91 247.88 62.04C247.87 57.32 247.14 52.8 245.81 48.66Z" fill="#C00040"/>
<path d="M198.79 67.55C198.91 67.61 199.02 67.44 198.92 67.35C197.36 65.95 193.42 61.58 195.71 54.95C197.82 48.84 189.91 47.77 190.75 55.81C191.57 63.57 196.85 66.66 198.79 67.55Z" fill="#C00040"/>
<path d="M225.01 67.17C227.13 64.83 233.18 57.25 230.48 50.36C228.1 44.27 221.92 46.64 224.27 52.14C227.43 59.52 225.63 65.13 224.81 67.04C224.76 67.17 224.92 67.28 225.01 67.17Z" fill="#C00040"/>
<path d="M200.63 68.3C200.65 68.43 200.84 68.44 200.87 68.31C201.13 67.07 201.45 64.47 200.31 62.21C199.06 59.73 196.63 61.97 198.35 63.56C200.01 65.07 200.49 67.19 200.63 68.3Z" fill="#C00040"/>
<path d="M228.12 43.41C231.09 45.45 232.07 48.55 232.41 49.9C232.44 50.03 232.63 50.02 232.64 49.88C232.84 48.23 233.13 43.71 230.91 41.15C227.95 37.76 224.32 40.8 228.12 43.41Z" fill="#C00040"/>
<path d="M309.36 185.51C311.111 185.51 312.53 184.091 312.53 182.34C312.53 180.589 311.111 179.17 309.36 179.17C307.609 179.17 306.19 180.589 306.19 182.34C306.19 184.091 307.609 185.51 309.36 185.51Z" fill="white"/>
<path d="M115.82 185.51C117.571 185.51 118.99 184.091 118.99 182.34C118.99 180.589 117.571 179.17 115.82 179.17C114.069 179.17 112.65 180.589 112.65 182.34C112.65 184.091 114.069 185.51 115.82 185.51Z" fill="white"/>
<path d="M138.93 188.36C139.36 187.08 139.68 186.17 139.87 185.63C140.06 185.09 140.47 183.97 141.09 182.28L145.45 170.59H150L140.81 194.11H136.94L127.75 170.59H132.34L136.7 182.28C137.32 183.97 137.73 185.08 137.92 185.63C138.11 186.18 138.43 187.09 138.86 188.36H138.93Z" fill="white"/>
<path d="M164.21 190.5H175.78V194.1H159.9V170.58H175.14V174.18H164.21V180.26H173.6V183.86H164.21V190.5V190.5Z" fill="white"/>
<path d="M204.48 177.65C204.48 179.29 204.03 180.68 203.12 181.82C202.21 182.96 200.81 183.81 198.91 184.36V184.43L205.91 194.1H200.74L194.34 184.99H191.39V194.1H187.08V170.58H194.23C195.41 170.58 196.52 170.65 197.53 170.78C198.54 170.91 199.42 171.12 200.15 171.39C201.53 171.92 202.6 172.7 203.35 173.74C204.1 174.78 204.48 176.08 204.48 177.65ZM193.51 181.39C194.49 181.39 195.33 181.35 196.01 181.26C196.69 181.17 197.27 181.04 197.74 180.86C198.61 180.53 199.21 180.08 199.54 179.52C199.87 178.96 200.04 178.3 200.04 177.56C200.04 176.93 199.91 176.37 199.64 175.88C199.37 175.39 198.93 175.01 198.3 174.73C197.89 174.54 197.37 174.4 196.75 174.32C196.13 174.24 195.36 174.19 194.45 174.19H191.37V181.4H193.51V181.39Z" fill="white"/>
<path d="M216.41 194.1V170.58H222.63C223.18 170.58 223.74 170.6 224.31 170.63C224.88 170.66 225.43 170.72 225.97 170.79C226.51 170.86 227.03 170.95 227.53 171.04C228.03 171.13 228.5 171.26 228.92 171.4C230.17 171.8 231.28 172.34 232.24 173.02C233.2 173.7 234.01 174.5 234.66 175.43C235.31 176.36 235.8 177.39 236.14 178.53C236.48 179.67 236.64 180.91 236.64 182.25C236.64 183.52 236.5 184.7 236.22 185.81C235.94 186.92 235.51 187.93 234.94 188.84C234.37 189.75 233.64 190.56 232.77 191.26C231.9 191.96 230.86 192.53 229.67 192.97C228.67 193.35 227.54 193.63 226.28 193.81C225.02 193.99 223.59 194.09 222.01 194.09H216.41V194.1ZM222.49 190.5C225.01 190.5 226.98 190.15 228.4 189.46C229.65 188.84 230.6 187.94 231.25 186.75C231.9 185.56 232.22 184.05 232.22 182.21C232.22 181.25 232.11 180.38 231.9 179.61C231.69 178.84 231.38 178.15 230.99 177.54C230.6 176.93 230.11 176.42 229.54 175.98C228.97 175.54 228.33 175.19 227.61 174.91C226.94 174.65 226.2 174.46 225.38 174.35C224.56 174.24 223.64 174.17 222.62 174.17H220.72V190.48H222.49V190.5Z" fill="white"/>
<path d="M269.81 182.34C269.81 184.13 269.56 185.78 269.05 187.27C268.54 188.76 267.8 190.05 266.82 191.13C265.84 192.21 264.64 193.05 263.22 193.64C261.8 194.23 260.18 194.54 258.36 194.54C256.54 194.54 254.92 194.24 253.5 193.64C252.08 193.04 250.87 192.2 249.9 191.13C248.93 190.06 248.18 188.77 247.67 187.27C247.16 185.77 246.91 184.13 246.91 182.34C246.91 180.55 247.16 178.9 247.67 177.41C248.18 175.92 248.92 174.63 249.9 173.55C250.88 172.47 252.08 171.63 253.5 171.04C254.92 170.45 256.54 170.14 258.36 170.14C260.18 170.14 261.8 170.44 263.22 171.04C264.64 171.64 265.85 172.48 266.82 173.55C267.79 174.62 268.54 175.91 269.05 177.41C269.56 178.91 269.81 180.55 269.81 182.34ZM265.37 182.34C265.37 180.91 265.19 179.66 264.84 178.59C264.49 177.52 264 176.62 263.38 175.91C262.76 175.2 262.02 174.66 261.17 174.31C260.32 173.96 259.38 173.78 258.36 173.78C257.34 173.78 256.4 173.96 255.55 174.31C254.7 174.66 253.96 175.19 253.34 175.91C252.72 176.63 252.23 177.52 251.88 178.59C251.53 179.66 251.35 180.91 251.35 182.34C251.35 183.77 251.53 185.02 251.88 186.09C252.23 187.16 252.72 188.05 253.34 188.76C253.96 189.47 254.7 190 255.55 190.36C256.4 190.72 257.34 190.9 258.36 190.9C259.38 190.9 260.32 190.72 261.17 190.36C262.02 190 262.76 189.47 263.38 188.76C264 188.05 264.49 187.16 264.84 186.09C265.19 185.02 265.37 183.77 265.37 182.34Z" fill="white"/>
<path d="M289.85 194.1H285.54V174.18H277.95V170.58H297.43V174.18H289.85V194.1V194.1Z" fill="white"/>
</svg>
